<svg xmlns="http://www.w3.org/2000/svg" viewBox="0 0 143.63 143.63"><script xmlns=""/><defs><style>.cls-1{fill:#ec3237;}.cls-2{fill:#fefefe;}.cls-3{fill:none;}</style></defs><title>icon</title><g id="Layer_2" data-name="Layer 2"><g id="Layer_1-2" data-name="Layer 1"><path class="cls-1" d="M71.82,135.33c-32.42.9-63.77-26.19-63.74-63.48a61.69,61.69,0,0,1,18.67-45C40.88,12.65,58.19,7,78,8.51c29.41,2.2,57.61,27.69,57.59,63.33C135.53,109.61,103.85,136.24,71.82,135.33Z"/><path class="cls-2" d="M54.46,81.72a9.88,9.88,0,0,1-.91,1.12c-1.82,1.61-1.8,3.39-.59,5.32.13.2.2.44.32.65L64.2,109.43A9.74,9.74,0,0,0,66.26,112c.29.27.6.54,1.08.32,1.74-.8,2.25-1.79,1.87-3.71a23.54,23.54,0,0,0-1.7-5.06c-1.8-3.94-3.8-7.79-5.46-11.79A161,161,0,0,1,50.82,48.48c-.43-3.61-1.57-4.44-5.34-3.9-4.18.59-8.34,1.29-12.52,1.84-1.22.16-1.57.59-1.51,1.82a109.91,109.91,0,0,0,3.66,21.53,70.18,70.18,0,0,0,5.24,15c.42.81.81,1.06,1.78.73,4-1.39,8.14-2.66,12.22-4Z"/><path class="cls-2" d="M71.59,47.39a5.33,5.33,0,0,0-4.23,1.55,6.76,6.76,0,0,1-5.5,1.74c-.54,0-.86-.12-.89-.81-.12-2.87-.29-5.75-.47-8.62,0-.56.16-.69.68-.68A10.7,10.7,0,0,1,68,42.74c3.07,2.43,4.78,2.43,7.73-.11a9,9,0,0,1,6.69-2c.56,0,.75.2.7.81-.23,2.79-.45,5.58-.58,8.37,0,.89-.37,1-1.17,1a10.08,10.08,0,0,1-5.52-2A6,6,0,0,0,71.59,47.39Z"/><path class="cls-2" d="M88.84,81.59c.93,1.34,2,2.16,2.47,3.47a1.77,1.77,0,0,1,0,1.39A205.85,205.85,0,0,1,80.7,107.33c-.57.93-1.25,1.8-1.91,2.67a3.5,3.5,0,0,1-1,.93,2.61,2.61,0,0,1-2.76.36c-.88-.5-.69-1.5-.56-2.33A49.16,49.16,0,0,1,78,98.12c2.59-6.42,5.53-12.7,8-19.18a120.29,120.29,0,0,0,6-25.37c.31-2.16.57-4.34,1-6.48.37-1.87,1.2-2.58,3-2.43a95.72,95.72,0,0,1,14.21,1.92c2.07.49,2,.57,1.88,2.72-.43,8.91-2.71,17.41-5.62,25.79-1.16,3.36-2.3,6.74-3.18,10.2-.21.83-.45,1-1.3.71-3.86-1.36-7.74-2.64-11.62-3.94C90,81.92,89.57,81.81,88.84,81.59ZM95.12,49.3a1.48,1.48,0,1,0,3,0,1.37,1.37,0,0,0-1.34-1.4A1.48,1.48,0,0,0,95.12,49.3Z"/><rect class="cls-3" width="143.63" height="143.63"/></g></g><script xmlns=""/></svg>
