<svg xmlns="http://www.w3.org/2000/svg" viewBox="0 0 505.74 171.5"><defs><style>.cls-1{fill:none;}.cls-2{fill:#ec3237;}.cls-3{fill:#fefefe;}</style></defs><title>logo</title><g id="Layer_2" data-name="Layer 2"><g id="Layer_1-2" data-name="Layer 1"><rect class="cls-1" width="505.74" height="171.5"/><path class="cls-2" d="M143,61.22c-.86,9.49-1.69,18.82-2.54,28.15-.77,8.58-1.6,17.16-2.32,25.75a31.49,31.49,0,0,0-.17,6.51,3.18,3.18,0,0,0,2.88,3.1,20.59,20.59,0,0,0,3.9.48c.63,0,1.58-.21,1.6.74s-.94,1-1.69,1c-3,.05-6-.11-9-.32a64.31,64.31,0,0,0-7.08.18c-1.8.07-3.6.1-5.4.11-.65,0-1.27-.22-1.27-1s.73-.73,1.27-.77c.82-.06,1.65,0,2.47-.11a4.54,4.54,0,0,0,4.27-3.41,36.82,36.82,0,0,0,1.32-7.51q1.25-10.83,2.41-21.67c.79-7.15,1.56-14.31,2.35-21.46s1.59-14.22,2.38-21.34q.51-4.51,1-9.05a5.88,5.88,0,0,1,.6-2.26c.5-.91,1.27-1,1.83-.11a14.22,14.22,0,0,1,.83,1.71q17.42,35.69,34.84,71.37c.14.3.31.59.52,1l8-17.08q12.87-27.58,25.73-55.17a10.44,10.44,0,0,1,1-1.65,1.29,1.29,0,0,1,1.3-.72c.61.12.8.65.87,1.18.24,1.71.47,3.42.66,5.13q1.33,11.84,2.64,23.68c.78,7.08,1.52,14.16,2.34,21.23,1.05,9.08,1.86,18.19,3.14,27.25a17.56,17.56,0,0,0,.41,1.74c1.05,4.26,3.72,6.6,8.12,7,1.39.13,2.77.24,4.16.29.57,0,1.32,0,1.3.86s-.69.89-1.3.9c-4.25,0-8.49-.18-12.72-.37-2.85-.13-5.69-.37-8.54-.57a4.68,4.68,0,0,1-1.85-.39c-.59-.29-.85-.82-.11-1.13,1-.41,1-1.21,1-2a67.8,67.8,0,0,0-.53-6.83c-.53-6-1.13-12.09-1.69-18.14q-1-10.51-2-21-.72-7.78-1.43-15.56c0-.32.09-.68-.22-1-.36.22-.42.62-.57.94L178.37,123a27.65,27.65,0,0,1-1.33,2.6c-.73,1.22-1.51,1.24-2.32.08a36.67,36.67,0,0,1-2.72-4.65c-9.91-19.37-19.49-38.9-28.25-58.82A2,2,0,0,0,143,61.22Z"/><path class="cls-2" d="M258.91,80.13c1.16-1.09,2.32-2.09,3.38-3.2q13.44-14,26.83-28.07a21.41,21.41,0,0,0,3-3.68c1.1-1.8.71-3.24-1.1-4.3-.39-.23-.85-.45-.73-1s.62-.52,1-.56a8.35,8.35,0,0,1,1.8,0c5.66.78,11.31.22,17,0a7.72,7.72,0,0,1,2.35.14c.42.11.79.32.73.84s-.48.51-.86.54c-5.25.38-9.59,2.76-13.42,6.2-7.37,6.62-14.27,13.73-21.33,20.68-3.18,3.13-6.26,6.37-9.4,9.54-.51.51-.62.85-.05,1.44,11.35,11.94,22.72,23.85,34.72,35.14a71.63,71.63,0,0,0,9.31,7.62c3.5,2.33,7.24,3.93,11.56,3.79a3.46,3.46,0,0,1,.78.09c.47.08.9.26.86.84s-.46.73-.93.81a1.31,1.31,0,0,1-.34,0c-5.58-.08-11.18.35-16.75-.46a18.12,18.12,0,0,1-7.91-3.31,78.73,78.73,0,0,1-10-8.83Q274,99.08,259.91,82.57c-.27-.33-.47-.76-.94-.92-.21.29-.1.6-.1.88,0,10-.06,20,.16,29.92a41.55,41.55,0,0,0,.64,8c.63,3,1.79,4.08,4.8,4.46,1.34.16,2.69.22,4,.35.57.06,1.34,0,1.34.85s-.75.92-1.39.93c-4.47.05-8.93-.15-13.39-.36-2.07-.1-4.12.15-6.18.2s-4.28.11-6.42.14c-.56,0-1.11-.12-1.13-.81s.54-.92,1.15-1,1.2,0,1.8,0c2.19-.11,3.21-.84,3.89-2.92a30,30,0,0,0,1.14-7.53c.39-6.44.3-12.9.3-19.34q0-22.23-.07-44.44a24.56,24.56,0,0,0-.47-5.48,5,5,0,0,0-4.68-4.28c-1.15-.17-2.31-.26-3.47-.37-.43,0-.89-.11-.92-.62s.39-.73.87-.83a8.9,8.9,0,0,1,2.47-.08,162.6,162.6,0,0,0,20.59,0,8.12,8.12,0,0,1,2.46.1c.45.11.79.3.77.81s-.39.57-.79.61c-.74.07-1.49.2-2.23.24-2.67.11-4.08,1.26-4.67,3.84A21.22,21.22,0,0,0,259,49c-.26,10.27-.16,20.55-.18,30.83A1.57,1.57,0,0,0,258.91,80.13Z"/><path class="cls-2" d="M86.63,37.67a129.88,129.88,0,0,1,21.72,2c2.62.45,5.27.71,7.91,1.06,1.23.16,1.6.5,1.41,1.66-1,6-.7,12.12-1.09,18.17a14.17,14.17,0,0,1-.16,1.46c-.07.44-.27.78-.79.78s-.77-.37-.8-.88a36.83,36.83,0,0,0-.38-4.81,14.28,14.28,0,0,0-7.74-10.57,38.2,38.2,0,0,0-13.18-3.94A54.65,54.65,0,0,0,71.89,44c-9.63,2.68-16.29,8.88-19.55,18.17C48.2,74,47.92,86.06,53,97.74c5.91,13.69,16.36,22.13,31.13,24.83a45.91,45.91,0,0,0,18.78-.52c6.48-1.51,10.77-5.33,12.39-11.91l.72-2.94c.15-.59.23-1.32,1-1.3s.91.85.9,1.45a22,22,0,0,1-.32,3q-.91,5.94-2.23,11.8a5,5,0,0,1-3.74,4,56.25,56.25,0,0,1-12,2.1,91.78,91.78,0,0,1-19.88-.42C66,125.93,54.55,120,46.5,108.48a42.69,42.69,0,0,1-7-19.69,47.11,47.11,0,0,1,4.59-27.41c6.42-12.7,16.75-20.15,30.73-22.64A75.92,75.92,0,0,1,86.63,37.67Z"/><path class="cls-2" d="M408.86,141.85c-30,.83-58.95-24.21-58.92-58.68A57.08,57.08,0,0,1,367.2,41.52c13.06-13.08,29.06-18.27,47.33-16.9,27.19,2,53.26,25.6,53.24,58.54C467.76,118.07,438.47,142.69,408.86,141.85Z"/><path class="cls-3" d="M392.81,92.29a7.79,7.79,0,0,1-.84,1c-1.68,1.48-1.66,3.13-.54,4.92.11.19.19.4.29.6l10.1,19.06a9,9,0,0,0,1.9,2.35c.27.25.56.49,1,.29a2.64,2.64,0,0,0,1.73-3.43,21.94,21.94,0,0,0-1.57-4.67c-1.66-3.65-3.52-7.21-5.05-10.9a148.72,148.72,0,0,1-10.38-40c-.4-3.33-1.45-4.1-4.94-3.6-3.86.55-7.7,1.2-11.57,1.71-1.13.14-1.45.54-1.39,1.67a100.15,100.15,0,0,0,3.38,19.9,64.93,64.93,0,0,0,4.84,13.86c.39.75.75,1,1.64.68,3.75-1.28,7.53-2.46,11.31-3.67Z"/><path class="cls-3" d="M408.65,60.56A4.93,4.93,0,0,0,404.74,62a6.2,6.2,0,0,1-5.08,1.61c-.5,0-.8-.11-.83-.75-.11-2.66-.26-5.31-.43-8,0-.52.15-.64.62-.64a9.89,9.89,0,0,1,6.3,2c2.84,2.25,4.42,2.25,7.15-.1a8.36,8.36,0,0,1,6.18-1.85c.52,0,.7.19.65.75-.21,2.58-.41,5.15-.53,7.73,0,.83-.35,1-1.09.92a9.27,9.27,0,0,1-5.11-1.82A5.54,5.54,0,0,0,408.65,60.56Z"/><path class="cls-3" d="M424.6,92.18c.85,1.24,1.89,2,2.28,3.2a1.58,1.58,0,0,1,0,1.28A186.3,186.3,0,0,1,417.07,116c-.53.86-1.15,1.66-1.76,2.47a4,4,0,0,1-.88.86,2.44,2.44,0,0,1-2.55.33c-.82-.46-.64-1.39-.53-2.15a45.28,45.28,0,0,1,3.24-10c2.39-5.94,5.11-11.74,7.35-17.74a111.12,111.12,0,0,0,5.57-23.44c.28-2,.53-4,.91-6,.34-1.73,1.11-2.39,2.82-2.25a89.44,89.44,0,0,1,13.14,1.78c1.91.45,1.83.53,1.74,2.51-.4,8.24-2.51,16.1-5.2,23.84-1.08,3.11-2.13,6.24-2.94,9.43-.2.77-.42.94-1.2.66C433.21,95,429.62,93.81,426,92.6Zm5.8-29.85a1.37,1.37,0,1,0,2.74,0A1.28,1.28,0,0,0,431.89,61,1.37,1.37,0,0,0,430.4,62.33Z"/></g></g></svg>
